<svg xmlns:xlink="http://www.w3.org/1999/xlink" xmlns="http://www.w3.org/2000/svg" id="Слой_1" data-name="Слой 1" viewBox="0 0 36 36" width="36"  height="36" ><defs><style>.cls-1{fill:#202324;}.cls-2,.cls-3{fill:#fff;}.cls-2{fill-rule:evenodd;}</style></defs><title>inst-1</title><circle class="cls-1" cx="18" cy="18" r="18"/><path class="cls-2" d="M18,13a5,5,0,1,0,5,5,5,5,0,0,0-5-5h0Zm0,8a3,3,0,1,1,3-3A3,3,0,0,1,18,21Z" transform="translate(0)"/><circle class="cls-3" cx="23.3" cy="12.68" r="1.32"/><path class="cls-2" d="M23,8H13a5,5,0,0,0-5,5V23a5.05,5.05,0,0,0,5,5L23,28a5,5,0,0,0,5-5L28,13a5.05,5.05,0,0,0-5-5h0Zm3,15a3.1,3.1,0,0,1-3,3H13a3.1,3.1,0,0,1-3-3V13a3.1,3.1,0,0,1,3-3H23a3.1,3.1,0,0,1,3,3V23Z" transform="translate(0)"/></svg>