<svg xmlns:xlink="http://www.w3.org/1999/xlink" xmlns="http://www.w3.org/2000/svg" id="Слой_1" data-name="Слой 1" viewBox="0 0 36 36" width="36"  height="36" ><defs><style>.cls-1{fill:#202324;}.cls-2{fill:#fff;fill-rule:evenodd;}</style></defs><title>tw-1</title><circle class="cls-1" cx="18" cy="18" r="18"/><path class="cls-2" d="M28.32,11.89a8.09,8.09,0,0,1-2.32.64,4.08,4.08,0,0,0,1.78-2.24,8.12,8.12,0,0,1-2.57,1A4.05,4.05,0,0,0,18.32,15,11.49,11.49,0,0,1,10,10.73a4.05,4.05,0,0,0,1.25,5.4,4,4,0,0,1-1.83-.51v0.05a4,4,0,0,0,3.25,4,4,4,0,0,1-1.83.07,4.05,4.05,0,0,0,3.78,2.81,8.14,8.14,0,0,1-6,1.67A11.5,11.5,0,0,0,26.31,14.5c0-.18,0-0.35,0-0.52A8.22,8.22,0,0,0,28.32,11.89Z" transform="translate(0)"/></svg>