<svg xmlns="http://www.w3.org/2000/svg" xmlns:xlink="http://www.w3.org/1999/xlink" version="1.1" id="Слой_1" x="0px" y="0px" viewBox="0 0 36 36" style="enable-background:new 0 0 36 36;" xml:space="preserve" width="36"  height="36" >
<style type="text/css">
	.st0{fill:#202324;}
	.st1{fill:#FFFFFF;}
</style>
<title>fb-1</title>
<circle class="st0" cx="18" cy="18" r="18"/>
<g>
	<path id="WhatsApp" class="st1" d="M27.8,18c0,5.4-4.4,9.7-9.8,9.7c-1.7,0-3.3-0.4-4.7-1.2l-5.4,1.7l1.8-5.2   c-0.9-1.5-1.4-3.2-1.4-5c0-5.4,4.4-9.7,9.8-9.7C23.4,8.3,27.8,12.7,27.8,18z M18,9.9c-4.6,0-8.3,3.7-8.3,8.2c0,1.8,0.6,3.5,1.6,4.8   l-1,3l3.2-1c1.3,0.9,2.9,1.4,4.5,1.4c4.6,0,8.3-3.7,8.3-8.2S22.6,9.9,18,9.9z M23,20.3c-0.1-0.1-0.2-0.2-0.5-0.3   c-0.2-0.1-1.4-0.7-1.6-0.8c-0.2-0.1-0.4-0.1-0.5,0.1c-0.2,0.2-0.6,0.8-0.8,0.9c-0.1,0.2-0.3,0.2-0.5,0.1c-0.2-0.1-1-0.4-1.9-1.2   c-0.7-0.6-1.2-1.4-1.3-1.7c-0.1-0.2,0-0.4,0.1-0.5c0.1-0.1,0.2-0.3,0.4-0.4c0.1-0.1,0.2-0.2,0.2-0.4c0.1-0.2,0-0.3,0-0.4   c-0.1-0.1-0.5-1.3-0.7-1.8c-0.2-0.5-0.4-0.4-0.5-0.4c-0.1,0-0.3,0-0.5,0s-0.4,0.1-0.6,0.3c-0.2,0.2-0.8,0.8-0.8,2   c0,1.2,0.9,2.3,1,2.5c0.1,0.2,1.7,2.6,4.1,3.6c2.4,1,2.4,0.6,2.9,0.6c0.4,0,1.4-0.6,1.6-1.1C23,20.9,23,20.4,23,20.3z"/>
</g>
</svg>