<svg xmlns:xlink="http://www.w3.org/1999/xlink" xmlns="http://www.w3.org/2000/svg" id="Слой_1" data-name="Слой 1" viewBox="0 0 36 36" width="36"  height="36" ><defs><style>.cls-1{fill:#202324;}.cls-1,.cls-2{fill-rule:evenodd;}.cls-2{fill:#fff;}</style></defs><title>yt-1</title><path class="cls-1" d="M18,36A18,18,0,1,0,0,18,18,18,0,0,0,18,36Z" transform="translate(0)"/><path class="cls-2" d="M21.5,18L16,21V15l5.51,3h0ZM28,18h0a29.13,29.13,0,0,0-.2-3.91c-0.33-2.33-1.48-2.84-3.07-2.93C23.32,11.09,20.4,11,18,11s-5.32.09-6.71,0.17c-1.58.09-2.74,0.6-3.07,2.93A29.39,29.39,0,0,0,8,18a29.34,29.34,0,0,0,.2,3.91c0.33,2.33,1.48,2.84,3.07,2.93C12.68,24.91,15.61,25,18,25s5.32-.1,6.71-0.18c1.58-.09,2.74-0.6,3.07-2.93A29.09,29.09,0,0,0,28,18Z" transform="translate(0)"/></svg>