<svg xmlns:xlink="http://www.w3.org/1999/xlink" xmlns="http://www.w3.org/2000/svg" id="Warstwa_1" data-name="Warstwa 1" viewBox="0 0 350 170" width="350"  height="170" ><defs><style>.cls-1{fill:#e0234e;}</style></defs><path class="cls-1" d="M183.7,36.22a6.21,6.21,0,0,0-2,.35,5.6,5.6,0,0,1,2.35,3.29c0,.18.07.31.1.48a3.59,3.59,0,0,1,0,.46c.1,2.22-.58,2.5-1.06,3.82a5.4,5.4,0,0,0,.35,5,3.13,3.13,0,0,0,.31.56c-1-6.4,4.37-7.36,5.36-9.36.07-1.75-1.37-2.91-2.51-3.72A5.54,5.54,0,0,0,183.7,36.22Zm8,1.44a3.29,3.29,0,0,0-.05.74c0,.2,0,.45-.05.65a4.27,4.27,0,0,1-.18.61,5.41,5.41,0,0,1-.2.61l-.28.58c-.07.1-.12.2-.2.3l-.15.23c-.13.18-.25.35-.38.51a3.92,3.92,0,0,1-.46.45v0c-.15.12-.3.27-.48.4-.53.41-1.13.71-1.69,1.09a4.82,4.82,0,0,0-.51.38,3.64,3.64,0,0,0-.48.4,5.11,5.11,0,0,0-.45.48,3.75,3.75,0,0,0-.38.51c-.13.18-.25.35-.36.53s-.17.38-.27.58a4.5,4.5,0,0,0-.21.58c-.07.23-.12.43-.17.64a3.26,3.26,0,0,0,0,.33c0,.1,0,.2-.05.3s0,.43,0,.63a2.42,2.42,0,0,0,0,.46,2.89,2.89,0,0,0,.07.63c0,.2.08.4.13.61s.12.4.2.6a4,4,0,0,0,.18.36l-5.82-2.25c-1-.28-1.95-.54-2.93-.76l-1.6-.38c-1.52-.31-3.06-.53-4.6-.69l-.13,0c-1.52-.15-3-.23-4.53-.23-1.11,0-2.22.05-3.31.13-1.54.1-3.09.3-4.63.55l-1.14.21c-.78.15-1.54.33-2.27.5l-1.14.31c-.38.15-.74.33-1.09.48l-.83.38c-.05,0-.11,0-.13,0-.25.12-.48.22-.71.35l-.18.08c-.27.12-.55.28-.78.4l-.51.25a.89.89,0,0,1-.22.13c-.23.13-.46.25-.66.38a6.5,6.5,0,0,0-.61.38c-.18.13-.35.23-.5.35a.35.35,0,0,1-.08.05c-.15.11-.33.23-.48.36l0,0-.38.3a1.3,1.3,0,0,1-.15.1l-.38.33a.46.46,0,0,1-.1.1c-.15.16-.31.28-.46.43,0,0,0,0-.05,0s-.3.28-.45.43,0,.06-.05.06a3.64,3.64,0,0,0-.38.4l-.18.15c-.13.15-.28.31-.43.46s-.08.07-.1.12c-.2.21-.38.41-.58.61l-.08.08a13.76,13.76,0,0,1-1.29,1.24,16.06,16.06,0,0,1-1.42,1.11c-.5.35-1,.66-1.51,1a15.71,15.71,0,0,1-1.6.76c-.53.23-1.09.43-1.64.61A30.91,30.91,0,0,1,132,62a4.52,4.52,0,0,0-.63.08l-.63.15-.61.22c-.2.08-.4.18-.61.28s-.38.23-.55.36a3.52,3.52,0,0,0-.51.43,3.57,3.57,0,0,0-.5.45,4.85,4.85,0,0,0-.43.51,6.39,6.39,0,0,0-.38.58,4.32,4.32,0,0,0-.36.58c-.1.23-.2.43-.28.66s-.15.43-.22.66a4.29,4.29,0,0,0-.13.6s0,0,0,.08c-.05.23-.05.53-.07.68a2.94,2.94,0,0,0,0,.51,1.83,1.83,0,0,0,0,.33,3.39,3.39,0,0,0,.1.48,4.22,4.22,0,0,0,.18.45v0c.08.15.18.3.28.45a3.54,3.54,0,0,0,.33.46,4.15,4.15,0,0,0,.43.4,3.15,3.15,0,0,0,.48.41,5.9,5.9,0,0,0,1.54,1.11,3.13,3.13,0,0,0,.41.2l.07,0a.21.21,0,0,0,0,.13,4.25,4.25,0,0,0,.12.6,3.11,3.11,0,0,0,.21.61c.07.15.12.3.2.46a.42.42,0,0,0,.07.12l.31.56.38.53a6.2,6.2,0,0,0,.43.48c.15.15.3.28.48.43a.07.07,0,0,0,.05,0c.15.12.3.25.45.35a3.92,3.92,0,0,0,.56.33,5.18,5.18,0,0,0,.58.28,3.39,3.39,0,0,0,.51.17s.05,0,.1,0l.33.08a10,10,0,0,0,.1,3.11c.23.51,1.34-1,2.45-2.81a15.59,15.59,0,0,0,0,4.4c.28.64,1.8-1.34,3.11-3.51a29.23,29.23,0,0,1,36,25.75c-.33-2.73-3.69-4.25-5.23-3.87A13.23,13.23,0,0,1,167,107.2a16,16,0,0,0-.25-5.06,16.31,16.31,0,0,1-3.13,6.37,7.09,7.09,0,0,1-6.08-2.73c-.1-.08-.12-.23-.2-.33s-.15-.35-.2-.53a1.76,1.76,0,0,1-.15-.53,3.38,3.38,0,0,1,0-.56v-.38c0-.17.08-.35.13-.53a3.68,3.68,0,0,1,.18-.53,4.74,4.74,0,0,1,.3-.53c.43-1.22.43-2.2-.35-2.78a3.2,3.2,0,0,0-.48-.26,3.18,3.18,0,0,1-.33-.1l-.21-.07a3.16,3.16,0,0,0-.53-.13,1.89,1.89,0,0,0-.53-.08,5.35,5.35,0,0,0-.55,0c-.13,0-.26,0-.38,0a2,2,0,0,0-.56.07,3.33,3.33,0,0,0-.53.11,4.68,4.68,0,0,0-.53.17l-.51.23a4.3,4.3,0,0,1-.48.25c-5.89,3.85-2.38,12.85,1.64,15.46a13.16,13.16,0,0,0-3.49.93l-.05,0a23.68,23.68,0,0,0,3.42,1.7c1.62.53,3.34,1,4.1,1.21v0a23.8,23.8,0,0,0,28.43-20.08l.15.65c.07.46.18.94.23,1.42v0c.05.23.07.46.1.66v.1c0,.23.05.46.05.66s0,.56,0,.84v.4c0,.13,0,.28,0,.41s0,.3,0,.45v.35c0,.18,0,.33,0,.51a2,2,0,0,1,0,.33c0,.18,0,.35,0,.56a.82.82,0,0,0,0,.22c0,.21,0,.38-.08.59a.82.82,0,0,1,0,.22c0,.26-.08.48-.11.74v0c0,.22-.1.48-.15.71v.07l-.15.68s0,.08,0,.11c0,.22-.11.45-.18.68v.07c-.08.26-.15.48-.2.71,0,0,0,0,0,0l-.23.76c-.1.25-.17.48-.27.74s-.18.5-.28.73-.21.48-.31.73h0a7.51,7.51,0,0,1-.33.71h0a1.05,1.05,0,0,1-.08.18s0,0,0,.07a23.75,23.75,0,0,1-7.11,8.5c-.2.13-.4.28-.6.43h0s-.13.08-.18.13-.35.25-.56.38l.08.15h0l1.06-.15h0c.66-.1,1.32-.23,2-.36a3.61,3.61,0,0,0,.55-.12l.36-.08c.17,0,.35-.07.53-.1l.45-.13a47.8,47.8,0,0,0,7.34-2.42,40.57,40.57,0,0,1-15.71,12.82,41.48,41.48,0,0,0,8.63-1.49,40.45,40.45,0,0,0,23.9-19.1,40.37,40.37,0,0,1-6.8,16.26,39.75,39.75,0,0,0,6.75-5.61A40.17,40.17,0,0,0,215,102.34a40.26,40.26,0,0,1,.73,12.19c18.26-25.47,1.52-51.88-5.49-58.83,0-.05,0-.08,0-.13s0,0,0,0,0,0,0,0c0,.3,0,.61,0,.91-.08.58-.15,1.14-.25,1.7s-.28,1.11-.43,1.66-.38,1.09-.61,1.62-.48,1-.76,1.55-.58,1-.91,1.44-.68.93-1,1.36-.78.86-1.18,1.27c-.26.23-.49.43-.74.63l-.58.51a14.28,14.28,0,0,1-1.42,1,14.75,14.75,0,0,1-1.49.86c-.53.26-1.06.48-1.59.71s-1.09.38-1.65.53-1.13.28-1.69.38-1.16.15-1.72.21c-.41,0-.81,0-1.22,0a16.2,16.2,0,0,1-1.72-.11,16.62,16.62,0,0,1-3.41-.68h0c.56-.05,1.12-.1,1.67-.2s1.14-.23,1.7-.38,1.11-.33,1.64-.53a15.49,15.49,0,0,0,1.6-.71,17,17,0,0,0,1.51-.83c.48-.33,1-.66,1.42-1a12.72,12.72,0,0,0,1.29-1.13,13.94,13.94,0,0,0,1.19-1.24c.38-.46.73-.91,1.06-1.37.05-.08.1-.18.15-.25.26-.41.51-.81.74-1.22a16.93,16.93,0,0,0,.76-1.54c.22-.53.43-1.06.6-1.62a15.19,15.19,0,0,0,.43-1.64c.1-.58.21-1.14.26-1.7s.1-1.16.1-1.72c0-.4,0-.81,0-1.21-.05-.58-.13-1.14-.21-1.7a15.91,15.91,0,0,0-.38-1.69c-.17-.53-.35-1.09-.55-1.62s-.46-1.06-.71-1.57-.56-1-.86-1.49-.66-.94-1-1.39-.76-.86-1.17-1.29c-.2-.2-.43-.43-.65-.63-1.14-.89-2.33-1.72-3.52-2.48l-.5-.26a9.81,9.81,0,0,0-2.41-1.06Z"/></svg>